name Walk4.mot
datacolumns 19
datarows 25
range 1.60700000 1.63100000
endheader

                time	   L_ground_force_vx	   L_ground_force_vy	   L_ground_force_vz	   L_ground_force_px	   L_ground_force_py	   L_ground_force_pz	   R_ground_force_vx	   R_ground_force_vy	   R_ground_force_vz	   R_ground_force_px	   R_ground_force_py	   R_ground_force_pz	   L_ground_torque_x	   L_ground_torque_y	   L_ground_torque_z	   R_ground_torque_x	   R_ground_torque_y	   R_ground_torque_z	
          1.60700000	          0.00000000	          0.00000000	          0.00000000	          0.00000000	          0.00000000	          0.00000000	         19.87625352	        541.87514263	         36.44525811	         -0.30353863	          0.00000000	         -0.08035720	          0.00000000	          0.00000000	          0.00000000	          0.00000000	          0.59111267	          0.00000000	
          1.60800000	          0.00000000	          0.00000000	          0.00000000	          0.00000000	          0.00000000	          0.00000000	         20.40850431	        542.93119854	         36.69900789	         -0.30339847	          0.00000000	         -0.08047948	          0.00000000	          0.00000000	          0.00000000	          0.00000000	          0.59502612	          0.00000000	
          1.60900000	          0.00000000	          0.00000000	          0.00000000	          0.00000000	          0.00000000	          0.00000000	         20.96565355	        543.99336645	         36.94075144	         -0.30328609	          0.00000000	         -0.08062584	          0.00000000	          0.00000000	          0.00000000	          0.00000000	          0.60117449	          0.00000000	
          1.61000000	          0.00000000	          0.00000000	          0.00000000	          0.00000000	          0.00000000	          0.00000000	         21.52847832	        545.03136220	         37.15701366	         -0.30317305	          0.00000000	         -0.08079073	          0.00000000	          0.00000000	          0.00000000	          0.00000000	          0.60726694	          0.00000000	
          1.61100000	          0.00000000	          0.00000000	          0.00000000	          0.00000000	          0.00000000	          0.00000000	         22.08214121	        546.04873902	         37.34393297	         -0.30301847	          0.00000000	         -0.08095566	          0.00000000	          0.00000000	          0.00000000	          0.00000000	          0.61231952	          0.00000000	
          1.61200000	          0.00000000	          0.00000000	          0.00000000	          0.00000000	          0.00000000	          0.00000000	         22.62296116	        547.08077435	         37.51745233	         -0.30280764	          0.00000000	         -0.08107568	          0.00000000	          0.00000000	          0.00000000	          0.00000000	          0.61766493	          0.00000000	
          1.61300000	          0.00000000	          0.00000000	          0.00000000	          0.00000000	          0.00000000	          0.00000000	         23.14858899	        548.15659581	         37.69823378	         -0.30256765	          0.00000000	         -0.08112080	          0.00000000	          0.00000000	          0.00000000	          0.00000000	          0.62632538	          0.00000000	
          1.61400000	          0.00000000	          0.00000000	          0.00000000	          0.00000000	          0.00000000	          0.00000000	         23.65123713	        549.28540833	         37.88999831	         -0.30233945	          0.00000000	         -0.08111791	          0.00000000	          0.00000000	          0.00000000	          0.00000000	          0.63898051	          0.00000000	
          1.61500000	          0.00000000	          0.00000000	          0.00000000	          0.00000000	          0.00000000	          0.00000000	         24.12812218	        550.46551162	         38.07915914	         -0.30215396	          0.00000000	         -0.08111039	          0.00000000	          0.00000000	          0.00000000	          0.00000000	          0.65121667	          0.00000000	
          1.61600000	          0.00000000	          0.00000000	          0.00000000	          0.00000000	          0.00000000	          0.00000000	         24.58962546	        551.68144789	         38.24929390	         -0.30202921	          0.00000000	         -0.08110559	          0.00000000	          0.00000000	          0.00000000	          0.00000000	          0.65771702	          0.00000000	
          1.61700000	          0.00000000	          0.00000000	          0.00000000	          0.00000000	          0.00000000	          0.00000000	         25.04862194	        552.90464841	         38.39542889	         -0.30196200	          0.00000000	         -0.08108879	          0.00000000	          0.00000000	          0.00000000	          0.00000000	          0.65797070	          0.00000000	
          1.61800000	          0.00000000	          0.00000000	          0.00000000	          0.00000000	          0.00000000	          0.00000000	         25.50867533	        554.11593200	         38.52855941	         -0.30191694	          0.00000000	         -0.08105993	          0.00000000	          0.00000000	          0.00000000	          0.00000000	          0.65549934	          0.00000000	
          1.61900000	          0.00000000	          0.00000000	          0.00000000	          0.00000000	          0.00000000	          0.00000000	         25.96755041	        555.32240739	         38.66595073	         -0.30184417	          0.00000000	         -0.08104090	          0.00000000	          0.00000000	          0.00000000	          0.00000000	          0.65257784	          0.00000000	
          1.62000000	          0.00000000	          0.00000000	          0.00000000	          0.00000000	          0.00000000	          0.00000000	         26.42558374	        556.54888699	         38.81779757	         -0.30171089	          0.00000000	         -0.08105918	          0.00000000	          0.00000000	          0.00000000	          0.00000000	          0.64882305	          0.00000000	
          1.62100000	          0.00000000	          0.00000000	          0.00000000	          0.00000000	          0.00000000	          0.00000000	         26.88587498	        557.81202971	         38.98452001	         -0.30151125	          0.00000000	         -0.08112955	          0.00000000	          0.00000000	          0.00000000	          0.00000000	          0.64367045	          0.00000000	
          1.62200000	          0.00000000	          0.00000000	          0.00000000	          0.00000000	          0.00000000	          0.00000000	         27.35120959	        559.10126124	         39.16313634	         -0.30126544	          0.00000000	         -0.08124185	          0.00000000	          0.00000000	          0.00000000	          0.00000000	          0.63748672	          0.00000000	
          1.62300000	          0.00000000	          0.00000000	          0.00000000	          0.00000000	          0.00000000	          0.00000000	         27.82061096	        560.39310324	         39.35086395	         -0.30101333	          0.00000000	         -0.08136633	          0.00000000	          0.00000000	          0.00000000	          0.00000000	          0.63053024	          0.00000000	
          1.62400000	          0.00000000	          0.00000000	          0.00000000	          0.00000000	          0.00000000	          0.00000000	         28.28533495	        561.68992597	         39.54346530	         -0.30079124	          0.00000000	         -0.08146765	          0.00000000	          0.00000000	          0.00000000	          0.00000000	          0.62210923	          0.00000000	
          1.62500000	          0.00000000	          0.00000000	          0.00000000	          0.00000000	          0.00000000	          0.00000000	         28.73344588	        563.03504453	         39.73525491	         -0.30061140	          0.00000000	         -0.08150903	          0.00000000	          0.00000000	          0.00000000	          0.00000000	          0.61276423	          0.00000000	
          1.62600000	          0.00000000	          0.00000000	          0.00000000	          0.00000000	          0.00000000	          0.00000000	         29.15867231	        564.47103585	         39.92151397	         -0.30046825	          0.00000000	         -0.08147253	          0.00000000	          0.00000000	          0.00000000	          0.00000000	          0.60560613	          0.00000000	
          1.62700000	          0.00000000	          0.00000000	          0.00000000	          0.00000000	          0.00000000	          0.00000000	         29.56262623	        565.98785999	         40.09916878	         -0.30035202	          0.00000000	         -0.08139579	          0.00000000	          0.00000000	          0.00000000	          0.00000000	          0.60256567	          0.00000000	
          1.62800000	          0.00000000	          0.00000000	          0.00000000	          0.00000000	          0.00000000	          0.00000000	         29.95310935	        567.52408559	         40.26336588	         -0.30024435	          0.00000000	         -0.08136667	          0.00000000	          0.00000000	          0.00000000	          0.00000000	          0.60137873	          0.00000000	
          1.62900000	          0.00000000	          0.00000000	          0.00000000	          0.00000000	          0.00000000	          0.00000000	         30.34245190	        569.00370992	         40.40706725	         -0.30011954	          0.00000000	         -0.08145686	          0.00000000	          0.00000000	          0.00000000	          0.00000000	          0.59796487	          0.00000000	
          1.63000000	          0.00000000	          0.00000000	          0.00000000	          0.00000000	          0.00000000	          0.00000000	         30.74420091	        570.38827380	         40.53128494	         -0.29996509	          0.00000000	         -0.08164867	          0.00000000	          0.00000000	          0.00000000	          0.00000000	          0.59106635	          0.00000000	
          1.63100000	          0.00000000	          0.00000000	          0.00000000	          0.00000000	          0.00000000	          0.00000000	         31.16582232	        571.71734679	         40.64700757	         -0.29979250	          0.00000000	         -0.08183804	          0.00000000	          0.00000000	          0.00000000	          0.00000000	          0.58375950	          0.00000000	
